<svg xmlns="http://www.w3.org/2000/svg" xmlns:xlink="http://www.w3.org/1999/xlink" width="60" zoomAndPan="magnify" viewBox="0 0 375 374.999991" height="100" preserveAspectRatio="xMidYMid meet" version="1.0"><defs><g/><clipPath id="910300b4f5"><path d="M 201.882812 85.589844 L 246.769531 85.589844 L 246.769531 232.871094 L 201.882812 232.871094 Z M 201.882812 85.589844 " clip-rule="nonzero"/></clipPath><clipPath id="dce512d0e9"><path d="M 246.769531 100.554688 L 246.769531 232.773438 L 201.882812 217.8125 L 201.882812 85.589844 Z M 246.769531 100.554688 " clip-rule="nonzero"/></clipPath><clipPath id="8d4289c400"><path d="M 164.359375 85.578125 L 201.890625 85.578125 L 201.890625 127.800781 L 164.359375 127.800781 Z M 164.359375 85.578125 " clip-rule="nonzero"/></clipPath><clipPath id="25b4a52653"><path d="M 164.359375 98.09375 L 164.359375 127.800781 L 201.890625 115.289062 L 201.890625 85.582031 Z M 164.359375 98.09375 " clip-rule="nonzero"/></clipPath><clipPath id="43405a7be0"><path d="M 147.421875 121.90625 L 179.625 121.90625 L 179.625 210.214844 L 147.421875 210.214844 Z M 147.421875 121.90625 " clip-rule="nonzero"/></clipPath><clipPath id="3e5a64c40a"><path d="M 179.625 132.640625 L 179.625 210.160156 L 147.421875 199.425781 L 147.421875 121.90625 Z M 179.625 132.640625 " clip-rule="nonzero"/></clipPath><clipPath id="7f5240085a"><path d="M 122.058594 121.820312 L 147.429688 121.820312 L 147.429688 183.660156 L 122.058594 183.660156 Z M 122.058594 121.820312 " clip-rule="nonzero"/></clipPath><clipPath id="2a05490d18"><path d="M 122.058594 130.351562 L 122.058594 183.660156 L 147.429688 175.203125 L 147.429688 121.894531 Z M 122.058594 130.351562 " clip-rule="nonzero"/></clipPath></defs><rect x="-37.5" width="450" fill="#ffffff" y="-37.499999" height="449.999989" fill-opacity="1"/><rect x="-37.5" width="450" fill="#266d82" y="-37.499999" height="449.999989" fill-opacity="1"/><g clip-path="url(#910300b4f5)"><g clip-path="url(#dce512d0e9)"><path fill="#ffffff" d="M 246.769531 85.589844 L 246.769531 232.695312 L 201.882812 232.695312 L 201.882812 85.589844 Z M 246.769531 85.589844 " fill-opacity="1" fill-rule="nonzero"/></g></g><g clip-path="url(#8d4289c400)"><g clip-path="url(#25b4a52653)"><path fill="#c0c0c0" d="M 164.359375 127.800781 L 164.359375 85.578125 L 201.890625 85.578125 L 201.890625 127.800781 Z M 164.359375 127.800781 " fill-opacity="1" fill-rule="nonzero"/></g></g><g clip-path="url(#43405a7be0)"><g clip-path="url(#3e5a64c40a)"><path fill="#ffffff" d="M 179.625 121.90625 L 179.625 210.214844 L 147.421875 210.214844 L 147.421875 121.90625 Z M 179.625 121.90625 " fill-opacity="1" fill-rule="nonzero"/></g></g><g clip-path="url(#7f5240085a)"><g clip-path="url(#2a05490d18)"><path fill="#c0c0c0" d="M 122.058594 183.660156 L 122.058594 121.921875 L 147.429688 121.921875 L 147.429688 183.660156 Z M 122.058594 183.660156 " fill-opacity="1" fill-rule="nonzero"/></g></g><g fill="#ffffff" fill-opacity="1"><g transform="translate(102.580773, 270.378664)"><g><path d="M 20.703125 -2.171875 L 20.703125 0 L 3.875 0 L 3.875 -23.796875 L 20.1875 -23.796875 L 20.1875 -21.609375 L 6.390625 -21.609375 L 6.390625 -13.15625 L 18.6875 -13.15625 L 18.6875 -11.015625 L 6.390625 -11.015625 L 6.390625 -2.171875 Z M 20.703125 -2.171875 "/></g></g></g><g fill="#ffffff" fill-opacity="1"><g transform="translate(125.305812, 270.378664)"><g><path d="M 3.875 -23.796875 L 13.5625 -23.796875 C 16.070312 -23.796875 18.289062 -23.289062 20.21875 -22.28125 C 22.144531 -21.269531 23.640625 -19.863281 24.703125 -18.0625 C 25.765625 -16.257812 26.296875 -14.203125 26.296875 -11.890625 C 26.296875 -9.578125 25.765625 -7.519531 24.703125 -5.71875 C 23.640625 -3.925781 22.144531 -2.523438 20.21875 -1.515625 C 18.289062 -0.503906 16.070312 0 13.5625 0 L 3.875 0 Z M 13.421875 -2.171875 C 15.503906 -2.171875 17.328125 -2.582031 18.890625 -3.40625 C 20.453125 -4.238281 21.664062 -5.382812 22.53125 -6.84375 C 23.394531 -8.3125 23.828125 -9.992188 23.828125 -11.890625 C 23.828125 -13.796875 23.394531 -15.476562 22.53125 -16.9375 C 21.664062 -18.40625 20.453125 -19.550781 18.890625 -20.375 C 17.328125 -21.195312 15.503906 -21.609375 13.421875 -21.609375 L 6.390625 -21.609375 L 6.390625 -2.171875 Z M 13.421875 -2.171875 "/></g></g></g><g fill="#ffffff" fill-opacity="1"><g transform="translate(153.363922, 270.378664)"><g><path d="M 13.453125 0.203125 C 10.378906 0.203125 7.976562 -0.675781 6.25 -2.4375 C 4.53125 -4.207031 3.671875 -6.78125 3.671875 -10.15625 L 3.671875 -23.796875 L 6.1875 -23.796875 L 6.1875 -10.265625 C 6.1875 -7.503906 6.804688 -5.441406 8.046875 -4.078125 C 9.296875 -2.722656 11.097656 -2.046875 13.453125 -2.046875 C 15.835938 -2.046875 17.648438 -2.722656 18.890625 -4.078125 C 20.140625 -5.441406 20.765625 -7.503906 20.765625 -10.265625 L 20.765625 -23.796875 L 23.21875 -23.796875 L 23.21875 -10.15625 C 23.21875 -6.78125 22.359375 -4.207031 20.640625 -2.4375 C 18.929688 -0.675781 16.535156 0.203125 13.453125 0.203125 Z M 13.453125 0.203125 "/></g></g></g><g fill="#ffffff" fill-opacity="1"><g transform="translate(180.267103, 270.378664)"><g><path d="M 23.75 -23.796875 L 23.75 0 L 21.6875 0 L 6.390625 -19.296875 L 6.390625 0 L 3.875 0 L 3.875 -23.796875 L 5.953125 -23.796875 L 21.28125 -4.484375 L 21.28125 -23.796875 Z M 23.75 -23.796875 "/></g></g></g><g fill="#ffffff" fill-opacity="1"><g transform="translate(207.883626, 270.378664)"><g><path d="M 20.703125 -2.171875 L 20.703125 0 L 3.875 0 L 3.875 -23.796875 L 20.1875 -23.796875 L 20.1875 -21.609375 L 6.390625 -21.609375 L 6.390625 -13.15625 L 18.6875 -13.15625 L 18.6875 -11.015625 L 6.390625 -11.015625 L 6.390625 -2.171875 Z M 20.703125 -2.171875 "/></g></g></g><g fill="#ffffff" fill-opacity="1"><g transform="translate(230.608665, 270.378664)"><g><path d="M 18.796875 0 L 11.109375 -10.46875 L 3.46875 0 L 0.578125 0 L 9.625 -12.234375 L 1.15625 -23.796875 L 4.046875 -23.796875 L 11.21875 -14.0625 L 18.359375 -23.796875 L 21.078125 -23.796875 L 12.640625 -12.296875 L 21.71875 0 Z M 18.796875 0 "/></g></g></g><g fill="#ffffff" fill-opacity="1"><g transform="translate(252.892103, 270.378664)"><g><path d="M 8.5 -21.609375 L 0.140625 -21.609375 L 0.140625 -23.796875 L 19.375 -23.796875 L 19.375 -21.609375 L 11.015625 -21.609375 L 11.015625 0 L 8.5 0 Z M 8.5 -21.609375 "/></g></g></g></svg>
