<svg xmlns="http://www.w3.org/2000/svg" xmlns:xlink="http://www.w3.org/1999/xlink" width="500" zoomAndPan="magnify" viewBox="0 0 375 374.999991" height="500" preserveAspectRatio="xMidYMid meet" version="1.0"><defs><g/><clipPath id="bef6e096b3"><path d="M 231.089844 90 L 359.890625 90 L 359.890625 178.289062 L 231.089844 178.289062 Z M 231.089844 90 " clip-rule="nonzero"/></clipPath><clipPath id="7395401616"><path d="M 288.144531 188.179688 L 365.273438 188.179688 L 365.273438 255.800781 L 288.144531 255.800781 Z M 288.144531 188.179688 " clip-rule="nonzero"/></clipPath><clipPath id="f41426faf2"><path d="M 288.144531 188.179688 L 331.40625 188.179688 L 365.21875 221.988281 L 331.40625 255.800781 L 288.144531 255.800781 L 321.953125 221.988281 Z M 288.144531 188.179688 " clip-rule="nonzero"/></clipPath></defs><g fill="#38b6ff" fill-opacity="1"><g transform="translate(9.782374, 258.240451)"><g><path d="M 23.046875 0 L 7.03125 0 L 7.03125 -68.734375 L 21.03125 -68.734375 L 53.765625 -26.078125 L 53.765625 -68.734375 L 69.796875 -68.734375 L 69.796875 0 L 55.9375 0 L 23.09375 -42.703125 L 23.046875 -42.703125 Z M 23.046875 0 "/></g></g><g transform="translate(86.598775, 258.240451)"><g><path d="M 55.9375 0 L 7.03125 0 L 7.03125 -68.734375 L 55.484375 -68.734375 L 55.484375 -54.53125 L 23.046875 -54.53125 L 23.046875 -41.546875 L 50.890625 -41.546875 L 50.890625 -28.203125 L 23.046875 -28.203125 L 23.046875 -14.25 L 55.9375 -14.25 Z M 55.9375 0 "/></g></g><g transform="translate(145.525041, 258.240451)"><g><path d="M 19.453125 0 L 0.609375 0 L 25.71875 -36.078125 L 3.078125 -68.734375 L 21.875 -68.734375 L 35.734375 -47.25 L 49.578125 -68.734375 L 68.375 -68.734375 L 45.734375 -36.078125 L 70.90625 0 L 52.046875 0 L 35.734375 -25.0625 Z M 19.453125 0 "/></g></g><g transform="translate(217.035046, 258.240451)"><g><path d="M 37.046875 0 L 21.125 0 L 21.125 -54.484375 L 1.875 -54.484375 L 1.875 -68.734375 L 56.25 -68.734375 L 56.25 -54.484375 L 37.046875 -54.484375 Z M 37.046875 0 "/></g></g></g><g fill="#f6f6f6" fill-opacity="1"><g transform="translate(16.873315, 169.306318)"><g><path d="M 55.9375 0 L 7.03125 0 L 7.03125 -68.734375 L 55.484375 -68.734375 L 55.484375 -54.53125 L 23.046875 -54.53125 L 23.046875 -41.546875 L 50.890625 -41.546875 L 50.890625 -28.203125 L 23.046875 -28.203125 L 23.046875 -14.25 L 55.9375 -14.25 Z M 55.9375 0 "/></g></g></g><g fill="#f6f6f6" fill-opacity="1"><g transform="translate(75.788484, 169.306318)"><g><path d="M 35.015625 0 L 7.03125 0 L 7.03125 -68.734375 L 34.875 -68.734375 C 40.394531 -68.734375 45.410156 -67.914062 49.921875 -66.28125 C 54.441406 -64.644531 58.328125 -62.3125 61.578125 -59.28125 C 64.828125 -56.25 67.328125 -52.632812 69.078125 -48.4375 C 70.835938 -44.238281 71.71875 -39.566406 71.71875 -34.421875 C 71.71875 -29.265625 70.847656 -24.570312 69.109375 -20.34375 C 67.367188 -16.113281 64.878906 -12.484375 61.640625 -9.453125 C 58.410156 -6.421875 54.546875 -4.085938 50.046875 -2.453125 C 45.554688 -0.816406 40.546875 0 35.015625 0 Z M 22.84375 -54.53125 L 22.84375 -14.203125 L 34.46875 -14.203125 C 38.914062 -14.203125 42.710938 -15 45.859375 -16.59375 C 49.015625 -18.195312 51.425781 -20.5 53.09375 -23.5 C 54.757812 -26.5 55.59375 -30.070312 55.59375 -34.21875 C 55.59375 -38.320312 54.78125 -41.890625 53.15625 -44.921875 C 51.539062 -47.953125 49.164062 -50.3125 46.03125 -52 C 42.90625 -53.6875 39.035156 -54.53125 34.421875 -54.53125 Z M 22.84375 -54.53125 "/></g></g></g><g fill="#f6f6f6" fill-opacity="1"><g transform="translate(150.114575, 169.306318)"><g><path d="M 36.1875 1.5625 C 31.90625 1.5625 27.9375 0.914062 24.28125 -0.375 C 20.625 -1.675781 17.421875 -3.546875 14.671875 -5.984375 C 11.929688 -8.429688 9.796875 -11.378906 8.265625 -14.828125 C 6.734375 -18.285156 5.96875 -22.1875 5.96875 -26.53125 L 5.96875 -68.734375 L 21.9375 -68.734375 L 21.9375 -27.6875 C 21.9375 -24.925781 22.484375 -22.425781 23.578125 -20.1875 C 24.671875 -17.945312 26.273438 -16.175781 28.390625 -14.875 C 30.515625 -13.582031 33.113281 -12.9375 36.1875 -12.9375 C 39.21875 -12.9375 41.785156 -13.582031 43.890625 -14.875 C 45.992188 -16.175781 47.59375 -17.9375 48.6875 -20.15625 C 49.78125 -22.382812 50.328125 -24.894531 50.328125 -27.6875 L 50.328125 -68.734375 L 66.359375 -68.734375 L 66.359375 -26.53125 C 66.359375 -22.457031 65.648438 -18.707031 64.234375 -15.28125 C 62.816406 -11.863281 60.773438 -8.890625 58.109375 -6.359375 C 55.453125 -3.835938 52.269531 -1.882812 48.5625 -0.5 C 44.851562 0.875 40.726562 1.5625 36.1875 1.5625 Z M 36.1875 1.5625 "/></g></g></g><path fill="#38b6ff" d="M 296.484375 141.953125 C 295.679688 141.953125 294.886719 141.828125 294.09375 141.574219 L 257.472656 129.359375 C 256.808594 131.085938 256.476562 133.308594 256.476562 136.550781 C 258.867188 137.933594 261.195312 140.71875 261.195312 145.511719 C 261.195312 148.449219 259.726562 150.5625 258.464844 151.964844 C 263.898438 158.269531 278.847656 162.800781 296.488281 162.800781 C 318.71875 162.800781 336.734375 155.605469 336.734375 146.75 C 336.734375 144.792969 336.734375 136.796875 336.734375 128.953125 L 298.863281 141.574219 C 298.085938 141.828125 297.289062 141.953125 296.484375 141.953125 Z M 296.484375 141.953125 " fill-opacity="1" fill-rule="nonzero"/><g clip-path="url(#bef6e096b3)"><path fill="#38b6ff" d="M 357.644531 110.273438 L 297.28125 90.152344 C 296.757812 89.980469 296.207031 89.980469 295.691406 90.152344 L 235.324219 110.273438 C 234.300781 110.617188 233.605469 111.578125 233.605469 112.65625 C 233.605469 113.738281 234.300781 114.699219 235.324219 115.042969 L 249.164062 119.65625 C 245.980469 123.347656 244.128906 128.554688 243.449219 137.023438 C 241.261719 138.054688 239.71875 140.253906 239.71875 142.839844 C 239.71875 145.472656 241.296875 147.710938 243.550781 148.71875 C 241.582031 165.847656 231.328125 171.558594 231.328125 173.023438 C 231.328125 173.765625 239.269531 178.050781 241.15625 178.050781 C 244.074219 178.050781 251.074219 173.101562 251.074219 162.414062 C 251.074219 156.117188 250.507812 151.355469 249.910156 147.980469 C 251.523438 146.808594 252.644531 144.992188 252.644531 142.839844 C 252.644531 140.492188 251.332031 138.527344 249.457031 137.398438 C 250.515625 123.417969 254.839844 121.078125 265.292969 116.742188 C 266.335938 116.332031 268.316406 115.53125 269.457031 115.058594 C 271.507812 114.210938 273.363281 113.457031 275.144531 112.742188 C 280.894531 110.460938 285.753906 108.625 289.460938 107.261719 C 293.523438 105.8125 295.34375 105.285156 295.410156 105.261719 C 296.960938 104.738281 298.691406 105.582031 299.226562 107.164062 C 299.753906 108.746094 298.910156 110.453125 297.324219 110.988281 C 297.203125 111.027344 290.140625 113.046875 271.765625 120.640625 C 270.582031 121.128906 269.457031 121.570312 268.386719 121.996094 C 266.207031 122.855469 264.402344 123.542969 262.886719 124.238281 L 295.691406 135.167969 C 295.953125 135.25 296.214844 135.292969 296.484375 135.292969 C 296.757812 135.292969 297.019531 135.25 297.28125 135.164062 L 357.644531 115.042969 C 358.671875 114.699219 359.363281 113.738281 359.363281 112.65625 C 359.363281 111.578125 358.671875 110.617188 357.644531 110.273438 Z M 357.644531 110.273438 " fill-opacity="1" fill-rule="nonzero"/></g><g clip-path="url(#7395401616)"><g clip-path="url(#f41426faf2)"><path fill="#f6f6f6" d="M 288.144531 188.179688 L 365.273438 188.179688 L 365.273438 255.800781 L 288.144531 255.800781 Z M 288.144531 188.179688 " fill-opacity="1" fill-rule="nonzero"/></g></g></svg>